<svg id="visual" viewBox="0 0 960 540" width="960" height="540" xmlns="http://www.w3.org/2000/svg" xmlns:xlink="http://www.w3.org/1999/xlink" version="1.1"><rect x="0" y="0" width="960" height="540" fill="#EAF0CE"></rect><path d="M0 419L20 427.5C40 436 80 453 120 459.3C160 465.7 200 461.3 240 455.5C280 449.7 320 442.3 360 436.7C400 431 440 427 480 434C520 441 560 459 600 465.8C640 472.7 680 468.3 720 463.5C760 458.7 800 453.3 840 450.2C880 447 920 446 940 445.5L960 445L960 541L940 541C920 541 880 541 840 541C800 541 760 541 720 541C680 541 640 541 600 541C560 541 520 541 480 541C440 541 400 541 360 541C320 541 280 541 240 541C200 541 160 541 120 541C80 541 40 541 20 541L0 541Z" fill="#051014" stroke-linecap="round" stroke-linejoin="miter"></path></svg>